<svg width="435" height="474" viewBox="0 0 435 474" fill="none" xmlns="http://www.w3.org/2000/svg">
<rect x="306" y="155" width="33" height="181" fill="#2F8D79"/>
<path d="M13.1641 374.99L11.0593 117.186H89.575L112.538 274.359L132.788 117.186L212.036 117.186L214.141 374.99H166.973L165.456 189.254L137.383 374.99H91.0938L58.2297 189.254L59.7461 374.99H13.1641Z" fill="#2F8D79"/>
<path d="M164.262 374.99L162.157 117.186H265.282L265.689 166.989H215.005L215.415 217.232H264.048L264.444 265.717H215.811L216.293 324.748H270.346L270.756 374.99H164.262Z" fill="#2F8D79"/>
<mask id="path-4-inside-1_623_125" fill="white">
<path d="M260.104 374.99L257.999 117.186H328.897C347.452 117.186 361.459 122.362 370.919 132.713C380.377 142.967 385.188 158.005 385.349 177.829L386.335 298.528C386.534 322.941 382.391 341.788 373.906 355.069C365.518 368.35 350.631 374.99 329.244 374.99H260.104ZM311.587 329.435H320.523C329.995 329.435 334.694 324.845 334.619 315.666L333.533 182.663C333.463 174.069 332.246 168.552 329.883 166.11C327.616 163.572 322.967 162.302 315.935 162.302H310.223L311.587 329.435Z"/>
</mask>
<path d="M260.104 374.99L257.999 117.186H328.897C347.452 117.186 361.459 122.362 370.919 132.713C380.377 142.967 385.188 158.005 385.349 177.829L386.335 298.528C386.534 322.941 382.391 341.788 373.906 355.069C365.518 368.35 350.631 374.99 329.244 374.99H260.104ZM311.587 329.435H320.523C329.995 329.435 334.694 324.845 334.619 315.666L333.533 182.663C333.463 174.069 332.246 168.552 329.883 166.11C327.616 163.572 322.967 162.302 315.935 162.302H310.223L311.587 329.435Z" fill="white"/>
<path d="M260.104 374.99H259.104L259.112 375.99H260.112L260.104 374.99ZM257.999 117.186L257.991 116.186H256.991L256.999 117.186H257.999ZM370.919 132.713L370.183 133.384L370.186 133.388L370.919 132.713ZM373.906 355.069L373.062 354.526L373.059 354.53L373.906 355.069ZM311.587 329.435H310.587L310.595 330.435H311.595L311.587 329.435ZM329.883 166.11L329.139 166.773L329.153 166.788L329.167 166.803L329.883 166.11ZM310.223 162.302L310.214 161.302H309.214L309.223 162.302H310.223ZM260.104 374.99H261.104L258.999 117.186H257.999H256.999L259.104 374.99H260.104ZM257.999 117.186L258.007 118.186H328.905L328.897 117.186L328.889 116.186H257.991L257.999 117.186ZM328.897 117.186L328.905 118.186C347.275 118.186 360.972 123.305 370.183 133.384L370.919 132.713L371.654 132.042C361.946 121.419 347.629 116.186 328.889 116.186L328.897 117.186ZM370.919 132.713L370.186 133.388C379.414 143.392 384.189 158.149 384.349 177.829H385.349H386.349C386.186 157.862 381.34 142.542 371.651 132.038L370.919 132.713ZM385.349 177.829H384.349L385.335 298.528H386.335H387.335L386.349 177.829H385.349ZM386.335 298.528H385.335C385.533 322.845 381.402 341.472 373.062 354.526L373.906 355.069L374.75 355.612C383.38 342.104 387.535 323.037 387.335 298.528H386.335ZM373.906 355.069L373.059 354.53C364.914 367.426 350.417 373.99 329.236 373.99L329.244 374.99L329.252 375.99C350.845 375.99 366.122 369.274 374.753 355.608L373.906 355.069ZM329.244 374.99L329.236 373.99H260.095L260.104 374.99L260.112 375.99H329.252L329.244 374.99ZM311.587 329.435L311.595 330.435H320.531L320.523 329.435L320.514 328.435H311.579L311.587 329.435ZM320.523 329.435L320.531 330.435C325.414 330.435 329.251 329.253 331.853 326.711C334.461 324.164 335.658 320.418 335.619 315.666H334.619H333.619C333.655 320.093 332.541 323.232 330.449 325.275C328.353 327.323 325.104 328.435 320.514 328.435L320.523 329.435ZM334.619 315.666H335.619L334.533 182.663H333.533H332.533L333.619 315.666H334.619ZM333.533 182.663H334.533C334.498 178.328 334.174 174.724 333.545 171.872C332.92 169.039 331.971 166.835 330.598 165.418L329.883 166.11L329.167 166.803C330.158 167.827 330.999 169.602 331.592 172.287C332.179 174.952 332.499 178.404 332.533 182.663H333.533ZM329.883 166.11L330.626 165.448C329.319 163.984 327.389 162.955 324.952 162.29C322.511 161.623 319.495 161.302 315.927 161.302L315.935 162.302L315.944 163.302C319.407 163.302 322.231 163.616 324.44 164.219C326.651 164.823 328.179 165.698 329.139 166.773L329.883 166.11ZM315.935 162.302L315.927 161.302H310.214L310.223 162.302L310.231 163.302H315.944L315.935 162.302ZM310.223 162.302H309.223L310.587 329.435H311.587H312.587L311.223 162.302H310.223Z" fill="#2F8D79" mask="url(#path-4-inside-1_623_125)"/>
<path d="M266.848 375.219C264.651 375.219 263.065 374.672 262.09 373.578C261.124 372.484 260.641 370.743 260.641 368.355V366.004H265.398V369.012C265.398 369.568 265.48 370.005 265.645 370.324C265.818 370.634 266.114 370.789 266.533 370.789C266.971 370.789 267.271 370.661 267.436 370.406C267.609 370.151 267.695 369.732 267.695 369.148C267.695 368.41 267.622 367.795 267.477 367.303C267.331 366.801 267.076 366.327 266.711 365.881C266.355 365.425 265.859 364.896 265.221 364.295L263.061 362.244C261.447 360.722 260.641 358.981 260.641 357.021C260.641 354.971 261.115 353.408 262.062 352.332C263.02 351.257 264.4 350.719 266.205 350.719C268.411 350.719 269.974 351.307 270.895 352.482C271.824 353.658 272.289 355.445 272.289 357.842H267.395V356.188C267.395 355.859 267.299 355.604 267.107 355.422C266.925 355.24 266.674 355.148 266.355 355.148C265.973 355.148 265.69 355.258 265.508 355.477C265.335 355.686 265.248 355.96 265.248 356.297C265.248 356.634 265.339 356.999 265.521 357.391C265.704 357.783 266.064 358.234 266.602 358.744L269.377 361.41C269.933 361.939 270.443 362.499 270.908 363.092C271.373 363.675 271.747 364.359 272.029 365.143C272.312 365.917 272.453 366.865 272.453 367.986C272.453 370.247 272.034 372.02 271.195 373.305C270.366 374.581 268.917 375.219 266.848 375.219ZM276.131 375V355.559H273.273V350.938H283.801V355.559H280.943V375H276.131ZM284.129 375L286.453 350.938H294.615L296.898 375H292.346L292.004 371.117H289.105L288.805 375H284.129ZM289.447 367.275H291.635L290.582 355.039H290.363L289.447 367.275ZM300.084 375V355.559H297.227V350.938H307.754V355.559H304.896V375H300.084ZM308.875 375V350.938H313.523V375H308.875ZM321.18 375.219C319.257 375.219 317.785 374.64 316.764 373.482C315.752 372.316 315.246 370.634 315.246 368.438V357.008C315.246 354.948 315.747 353.385 316.75 352.318C317.762 351.252 319.238 350.719 321.18 350.719C323.121 350.719 324.593 351.252 325.596 352.318C326.607 353.385 327.113 354.948 327.113 357.008V368.438C327.113 370.634 326.603 372.316 325.582 373.482C324.57 374.64 323.103 375.219 321.18 375.219ZM321.221 370.789C321.95 370.789 322.314 370.083 322.314 368.67V356.926C322.314 355.741 321.959 355.148 321.248 355.148C320.446 355.148 320.045 355.755 320.045 356.967V368.697C320.045 369.445 320.136 369.982 320.318 370.311C320.501 370.63 320.801 370.789 321.221 370.789ZM329.055 375V350.938H334.004L336.219 362.463V350.938H340.867V375H336.164L333.758 362.969V375H329.055Z" fill="#2F8D79"/>
<rect x="259" y="4" width="39" height="114" fill="#2F8D79"/>
<rect x="336" y="41" width="39" height="114" transform="rotate(90 336 41)" fill="#2F8D79"/>
<rect x="11" y="376" width="380" height="5" fill="#2F8D79"/>
</svg>
